<?xml version="1.0" standalone="no"?>
<!DOCTYPE svg PUBLIC "-//W3C//DTD SVG 20010904//EN"
 "http://www.w3.org/TR/2001/REC-SVG-20010904/DTD/svg10.dtd">
<svg version="1.0" xmlns="http://www.w3.org/2000/svg"
 width="160.000000pt" height="160.000000pt" viewBox="0 0 160.000000 160.000000"
 preserveAspectRatio="xMidYMid meet">
<metadata>
Created by potrace 1.11, written by Peter Selinger 2001-2013
</metadata>
<g transform="translate(0.000000,160.000000) scale(0.100000,-0.100000)"
fill="#000000" stroke="none">
<path d="M410 1565 c-139 -39 -294 -172 -351 -299 -30 -69 -37 -143 -21 -222
23 -116 61 -178 202 -330 41 -44 102 -123 134 -175 157 -249 321 -416 461
-471 95 -37 248 -40 329 -6 119 50 285 191 331 281 127 248 98 412 -118 686
-117 147 -221 239 -423 373 -105 70 -216 136 -249 148 -79 29 -219 36 -295 15z"/>
</g>
</svg>
